<mxfile host="65bd71144e">
    <diagram id="MInnTQ_A1hLE6qXTjMyx" name="Page-1">
        <mxGraphModel dx="772" dy="1663" grid="1" gridSize="10" guides="1" tooltips="1" connect="1" arrows="1" fold="1" page="1" pageScale="1" pageWidth="850" pageHeight="1100" math="0" shadow="0">
            <root>
                <mxCell id="0"/>
                <mxCell id="1" parent="0"/>
                <mxCell id="2" value="" style="rounded=1;whiteSpace=wrap;html=1;shadow=0;" parent="1" vertex="1">
                    <mxGeometry x="40" y="60" width="520" height="350" as="geometry"/>
                </mxCell>
                <mxCell id="3" value="" style="rounded=1;whiteSpace=wrap;html=1;shadow=0;glass=0;strokeColor=#7C4F83;fillColor=none;" parent="1" vertex="1">
                    <mxGeometry x="90" y="110" width="450" height="100" as="geometry"/>
                </mxCell>
                <mxCell id="4" value="RAW" style="text;html=1;strokeColor=none;fillColor=none;align=center;verticalAlign=middle;whiteSpace=wrap;rounded=0;shadow=0;" parent="1" vertex="1">
                    <mxGeometry x="50" y="60" width="60" height="30" as="geometry"/>
                </mxCell>
                <mxCell id="5" style="edgeStyle=none;html=1;entryX=0.5;entryY=0;entryDx=0;entryDy=0;entryPerimeter=0;shadow=0;flowAnimation=1;" parent="1" source="6" target="12" edge="1">
                    <mxGeometry relative="1" as="geometry"/>
                </mxCell>
                <mxCell id="6" value="Csv" style="whiteSpace=wrap;html=1;shape=mxgraph.basic.document;shadow=0;" parent="1" vertex="1">
                    <mxGeometry x="145" y="-20" width="50" height="70" as="geometry"/>
                </mxCell>
                <mxCell id="7" style="edgeStyle=none;html=1;entryX=0.5;entryY=0;entryDx=0;entryDy=0;entryPerimeter=0;shadow=0;flowAnimation=1;" parent="1" source="8" target="14" edge="1">
                    <mxGeometry relative="1" as="geometry"/>
                </mxCell>
                <mxCell id="8" value="Csv" style="whiteSpace=wrap;html=1;shape=mxgraph.basic.document;shadow=0;" parent="1" vertex="1">
                    <mxGeometry x="285" y="-20" width="50" height="70" as="geometry"/>
                </mxCell>
                <mxCell id="9" style="edgeStyle=none;html=1;entryX=0.5;entryY=0;entryDx=0;entryDy=0;entryPerimeter=0;shadow=0;flowAnimation=1;" parent="1" source="10" target="16" edge="1">
                    <mxGeometry relative="1" as="geometry"/>
                </mxCell>
                <mxCell id="10" value="Tsv" style="whiteSpace=wrap;html=1;shape=mxgraph.basic.document;shadow=0;" parent="1" vertex="1">
                    <mxGeometry x="425" y="-20" width="50" height="70" as="geometry"/>
                </mxCell>
                <mxCell id="11" style="edgeStyle=none;html=1;shadow=0;flowAnimation=1;" parent="1" source="12" target="48" edge="1">
                    <mxGeometry relative="1" as="geometry"/>
                </mxCell>
                <mxCell id="12" value="&lt;p&gt;empregados_raw&lt;/p&gt;" style="points=[[0.25,0,0],[0.5,0,0],[0.75,0,0],[1,0.25,0],[1,0.5,0],[1,0.75,0],[0.75,1,0],[0.5,1,0],[0.25,1,0],[0,0.75,0],[0,0.5,0],[0,0.25,0]];shape=mxgraph.bpmn.task;whiteSpace=wrap;rectStyle=rounded;size=10;html=1;taskMarker=script;strokeColor=#7C4F83;shadow=0;" parent="1" vertex="1">
                    <mxGeometry x="110" y="120" width="120" height="80" as="geometry"/>
                </mxCell>
                <mxCell id="13" style="edgeStyle=none;html=1;shadow=0;flowAnimation=1;" parent="1" source="14" target="50" edge="1">
                    <mxGeometry relative="1" as="geometry"/>
                </mxCell>
                <mxCell id="14" value="&lt;p&gt;reclamacoes_raw&lt;/p&gt;" style="points=[[0.25,0,0],[0.5,0,0],[0.75,0,0],[1,0.25,0],[1,0.5,0],[1,0.75,0],[0.75,1,0],[0.5,1,0],[0.25,1,0],[0,0.75,0],[0,0.5,0],[0,0.25,0]];shape=mxgraph.bpmn.task;whiteSpace=wrap;rectStyle=rounded;size=10;html=1;taskMarker=script;strokeColor=#7C4F83;shadow=0;" parent="1" vertex="1">
                    <mxGeometry x="250" y="120" width="120" height="80" as="geometry"/>
                </mxCell>
                <mxCell id="15" style="edgeStyle=none;html=1;entryX=0.5;entryY=0;entryDx=0;entryDy=0;entryPerimeter=0;shadow=0;flowAnimation=1;" parent="1" source="16" target="52" edge="1">
                    <mxGeometry relative="1" as="geometry"/>
                </mxCell>
                <mxCell id="16" value="&lt;p&gt;bancos_raw&lt;/p&gt;" style="points=[[0.25,0,0],[0.5,0,0],[0.75,0,0],[1,0.25,0],[1,0.5,0],[1,0.75,0],[0.75,1,0],[0.5,1,0],[0.25,1,0],[0,0.75,0],[0,0.5,0],[0,0.25,0]];shape=mxgraph.bpmn.task;whiteSpace=wrap;rectStyle=rounded;size=10;html=1;taskMarker=script;strokeColor=#7C4F83;shadow=0;" parent="1" vertex="1">
                    <mxGeometry x="390" y="120" width="120" height="80" as="geometry"/>
                </mxCell>
                <mxCell id="17" value="" style="rounded=1;whiteSpace=wrap;html=1;shadow=0;" parent="1" vertex="1">
                    <mxGeometry x="40" y="450" width="520" height="310" as="geometry"/>
                </mxCell>
                <mxCell id="18" value="Truested" style="text;html=1;strokeColor=none;fillColor=none;align=center;verticalAlign=middle;whiteSpace=wrap;rounded=0;shadow=0;" parent="1" vertex="1">
                    <mxGeometry x="50" y="450" width="60" height="30" as="geometry"/>
                </mxCell>
                <mxCell id="19" value="" style="points=[[0,0,0],[0.25,0,0],[0.5,0,0],[0.75,0,0],[1,0,0],[0,1,0],[0.25,1,0],[0.5,1,0],[0.75,1,0],[1,1,0],[0,0.25,0],[0,0.5,0],[0,0.75,0],[1,0.25,0],[1,0.5,0],[1,0.75,0]];outlineConnect=0;fontColor=#232F3E;gradientColor=#945DF2;gradientDirection=north;fillColor=#5A30B5;strokeColor=#ffffff;dashed=0;verticalLabelPosition=bottom;verticalAlign=top;align=center;html=1;fontSize=12;fontStyle=0;aspect=fixed;shape=mxgraph.aws4.resourceIcon;resIcon=mxgraph.aws4.glue;rounded=0;shadow=0;glass=0;" parent="1" vertex="1">
                    <mxGeometry x="60" y="90" width="40" height="40" as="geometry"/>
                </mxCell>
                <mxCell id="20" value="" style="rounded=1;whiteSpace=wrap;html=1;shadow=0;glass=0;strokeColor=#7C4F83;fillColor=none;" parent="1" vertex="1">
                    <mxGeometry x="92" y="500" width="439" height="100" as="geometry"/>
                </mxCell>
                <mxCell id="21" style="edgeStyle=none;html=1;shadow=0;flowAnimation=1;" parent="1" source="22" target="35" edge="1">
                    <mxGeometry relative="1" as="geometry"/>
                </mxCell>
                <mxCell id="22" value="&lt;p&gt;empregados_truested&lt;/p&gt;" style="points=[[0.25,0,0],[0.5,0,0],[0.75,0,0],[1,0.25,0],[1,0.5,0],[1,0.75,0],[0.75,1,0],[0.5,1,0],[0.25,1,0],[0,0.75,0],[0,0.5,0],[0,0.25,0]];shape=mxgraph.bpmn.task;whiteSpace=wrap;rectStyle=rounded;size=10;html=1;taskMarker=script;strokeColor=#7C4F83;shadow=0;" parent="1" vertex="1">
                    <mxGeometry x="110" y="510" width="120" height="80" as="geometry"/>
                </mxCell>
                <mxCell id="23" style="edgeStyle=none;html=1;shadow=0;flowAnimation=1;" parent="1" source="24" target="37" edge="1">
                    <mxGeometry relative="1" as="geometry"/>
                </mxCell>
                <mxCell id="24" value="&lt;p&gt;reclamacoes_truested&lt;/p&gt;" style="points=[[0.25,0,0],[0.5,0,0],[0.75,0,0],[1,0.25,0],[1,0.5,0],[1,0.75,0],[0.75,1,0],[0.5,1,0],[0.25,1,0],[0,0.75,0],[0,0.5,0],[0,0.25,0]];shape=mxgraph.bpmn.task;whiteSpace=wrap;rectStyle=rounded;size=10;html=1;taskMarker=script;strokeColor=#7C4F83;shadow=0;" parent="1" vertex="1">
                    <mxGeometry x="251.5" y="510" width="120" height="80" as="geometry"/>
                </mxCell>
                <mxCell id="25" style="edgeStyle=none;html=1;shadow=0;flowAnimation=1;" parent="1" source="26" target="39" edge="1">
                    <mxGeometry relative="1" as="geometry"/>
                </mxCell>
                <mxCell id="26" value="&lt;p&gt;bancos_truested&lt;/p&gt;" style="points=[[0.25,0,0],[0.5,0,0],[0.75,0,0],[1,0.25,0],[1,0.5,0],[1,0.75,0],[0.75,1,0],[0.5,1,0],[0.25,1,0],[0,0.75,0],[0,0.5,0],[0,0.25,0]];shape=mxgraph.bpmn.task;whiteSpace=wrap;rectStyle=rounded;size=10;html=1;taskMarker=script;strokeColor=#7C4F83;shadow=0;" parent="1" vertex="1">
                    <mxGeometry x="390" y="510" width="120" height="80" as="geometry"/>
                </mxCell>
                <mxCell id="27" value="" style="points=[[0,0,0],[0.25,0,0],[0.5,0,0],[0.75,0,0],[1,0,0],[0,1,0],[0.25,1,0],[0.5,1,0],[0.75,1,0],[1,1,0],[0,0.25,0],[0,0.5,0],[0,0.75,0],[1,0.25,0],[1,0.5,0],[1,0.75,0]];outlineConnect=0;fontColor=#232F3E;gradientColor=#945DF2;gradientDirection=north;fillColor=#5A30B5;strokeColor=#ffffff;dashed=0;verticalLabelPosition=bottom;verticalAlign=top;align=center;html=1;fontSize=12;fontStyle=0;aspect=fixed;shape=mxgraph.aws4.resourceIcon;resIcon=mxgraph.aws4.glue;rounded=0;shadow=0;glass=0;" parent="1" vertex="1">
                    <mxGeometry x="62" y="480" width="40" height="40" as="geometry"/>
                </mxCell>
                <mxCell id="28" value="" style="rounded=1;whiteSpace=wrap;html=1;shadow=0;" parent="1" vertex="1">
                    <mxGeometry x="40" y="830" width="520" height="190" as="geometry"/>
                </mxCell>
                <mxCell id="29" style="edgeStyle=none;html=1;shadow=0;flowAnimation=1;" parent="1" source="30" target="53" edge="1">
                    <mxGeometry relative="1" as="geometry"/>
                </mxCell>
                <mxCell id="30" value="" style="rounded=0;whiteSpace=wrap;html=1;strokeColor=#DCF213;fillColor=none;shadow=0;" parent="1" vertex="1">
                    <mxGeometry x="94" y="630" width="436" height="120" as="geometry"/>
                </mxCell>
                <mxCell id="31" value="Delivery" style="text;html=1;strokeColor=none;fillColor=none;align=center;verticalAlign=middle;whiteSpace=wrap;rounded=0;shadow=0;" parent="1" vertex="1">
                    <mxGeometry x="64.5" y="830" width="60" height="30" as="geometry"/>
                </mxCell>
                <mxCell id="32" value="" style="points=[[0,0,0],[0.25,0,0],[0.5,0,0],[0.75,0,0],[1,0,0],[0,1,0],[0.25,1,0],[0.5,1,0],[0.75,1,0],[1,1,0],[0,0.25,0],[0,0.5,0],[0,0.75,0],[1,0.25,0],[1,0.5,0],[1,0.75,0]];outlineConnect=0;fontColor=#232F3E;gradientColor=#60A337;gradientDirection=north;fillColor=#277116;strokeColor=#ffffff;dashed=0;verticalLabelPosition=bottom;verticalAlign=top;align=center;html=1;fontSize=12;fontStyle=0;aspect=fixed;shape=mxgraph.aws4.resourceIcon;resIcon=mxgraph.aws4.s3;rounded=0;shadow=0;glass=0;" parent="1" vertex="1">
                    <mxGeometry x="74" y="620" width="40" height="40" as="geometry"/>
                </mxCell>
                <mxCell id="33" value="s3://eedb-011-data-lake/Truested&lt;br&gt;/" style="text;html=1;strokeColor=none;fillColor=none;align=center;verticalAlign=middle;whiteSpace=wrap;rounded=0;shadow=0;glass=0;" parent="1" vertex="1">
                    <mxGeometry x="114" y="610" width="220" height="30" as="geometry"/>
                </mxCell>
                <mxCell id="34" style="edgeStyle=none;html=1;entryX=0.25;entryY=0;entryDx=0;entryDy=0;entryPerimeter=0;shadow=0;flowAnimation=1;" parent="1" source="35" target="42" edge="1">
                    <mxGeometry relative="1" as="geometry">
                        <mxPoint x="170.5" y="890" as="targetPoint"/>
                    </mxGeometry>
                </mxCell>
                <mxCell id="35" value="dw_banks&lt;br&gt;.parquet" style="whiteSpace=wrap;html=1;shape=mxgraph.basic.document;rounded=0;shadow=0;glass=0;strokeColor=#DCF213;fillColor=none;" parent="1" vertex="1">
                    <mxGeometry x="135" y="640" width="70" height="100" as="geometry"/>
                </mxCell>
                <mxCell id="36" style="edgeStyle=none;html=1;shadow=0;flowAnimation=1;" parent="1" source="37" target="42" edge="1">
                    <mxGeometry relative="1" as="geometry"/>
                </mxCell>
                <mxCell id="37" value="dw_complaints&lt;br&gt;.parquet" style="whiteSpace=wrap;html=1;shape=mxgraph.basic.document;rounded=0;shadow=0;glass=0;strokeColor=#DCF213;fillColor=none;" parent="1" vertex="1">
                    <mxGeometry x="271.5" y="640" width="80" height="100" as="geometry"/>
                </mxCell>
                <mxCell id="38" style="edgeStyle=none;html=1;entryX=0.75;entryY=0;entryDx=0;entryDy=0;entryPerimeter=0;shadow=0;flowAnimation=1;" parent="1" source="39" target="42" edge="1">
                    <mxGeometry relative="1" as="geometry"/>
                </mxCell>
                <mxCell id="39" value="dw_employees&lt;br&gt;.parquet" style="whiteSpace=wrap;html=1;shape=mxgraph.basic.document;rounded=0;shadow=0;glass=0;strokeColor=#DCF213;fillColor=none;" parent="1" vertex="1">
                    <mxGeometry x="410" y="640" width="80" height="100" as="geometry"/>
                </mxCell>
                <mxCell id="40" style="edgeStyle=none;html=1;shadow=0;flowAnimation=1;" parent="1" source="41" target="54" edge="1">
                    <mxGeometry relative="1" as="geometry">
                        <mxPoint x="600" y="930" as="targetPoint"/>
                    </mxGeometry>
                </mxCell>
                <mxCell id="41" value="" style="rounded=1;whiteSpace=wrap;html=1;shadow=0;glass=0;strokeColor=#7C4F83;fillColor=none;" parent="1" vertex="1">
                    <mxGeometry x="92.5" y="880" width="439" height="100" as="geometry"/>
                </mxCell>
                <mxCell id="42" value="&lt;p&gt;reclamacoes_truested&lt;/p&gt;" style="points=[[0.25,0,0],[0.5,0,0],[0.75,0,0],[1,0.25,0],[1,0.5,0],[1,0.75,0],[0.75,1,0],[0.5,1,0],[0.25,1,0],[0,0.75,0],[0,0.5,0],[0,0.25,0]];shape=mxgraph.bpmn.task;whiteSpace=wrap;rectStyle=rounded;size=10;html=1;taskMarker=script;strokeColor=#7C4F83;shadow=0;" parent="1" vertex="1">
                    <mxGeometry x="120" y="893.33" width="390" height="76.67" as="geometry"/>
                </mxCell>
                <mxCell id="43" value="" style="points=[[0,0,0],[0.25,0,0],[0.5,0,0],[0.75,0,0],[1,0,0],[0,1,0],[0.25,1,0],[0.5,1,0],[0.75,1,0],[1,1,0],[0,0.25,0],[0,0.5,0],[0,0.75,0],[1,0.25,0],[1,0.5,0],[1,0.75,0]];outlineConnect=0;fontColor=#232F3E;gradientColor=#945DF2;gradientDirection=north;fillColor=#5A30B5;strokeColor=#ffffff;dashed=0;verticalLabelPosition=bottom;verticalAlign=top;align=center;html=1;fontSize=12;fontStyle=0;aspect=fixed;shape=mxgraph.aws4.resourceIcon;resIcon=mxgraph.aws4.glue;rounded=0;shadow=0;glass=0;" parent="1" vertex="1">
                    <mxGeometry x="62.5" y="860" width="40" height="40" as="geometry"/>
                </mxCell>
                <mxCell id="44" value="" style="rounded=0;whiteSpace=wrap;html=1;strokeColor=#DCF213;fillColor=none;shadow=0;" parent="1" vertex="1">
                    <mxGeometry x="89" y="250" width="451" height="120" as="geometry"/>
                </mxCell>
                <mxCell id="45" value="" style="points=[[0,0,0],[0.25,0,0],[0.5,0,0],[0.75,0,0],[1,0,0],[0,1,0],[0.25,1,0],[0.5,1,0],[0.75,1,0],[1,1,0],[0,0.25,0],[0,0.5,0],[0,0.75,0],[1,0.25,0],[1,0.5,0],[1,0.75,0]];outlineConnect=0;fontColor=#232F3E;gradientColor=#60A337;gradientDirection=north;fillColor=#277116;strokeColor=#ffffff;dashed=0;verticalLabelPosition=bottom;verticalAlign=top;align=center;html=1;fontSize=12;fontStyle=0;aspect=fixed;shape=mxgraph.aws4.resourceIcon;resIcon=mxgraph.aws4.s3;rounded=0;shadow=0;glass=0;" parent="1" vertex="1">
                    <mxGeometry x="69" y="240" width="40" height="40" as="geometry"/>
                </mxCell>
                <mxCell id="46" value="s3://eedb-011-data-lake/RAW/" style="text;html=1;strokeColor=none;fillColor=none;align=center;verticalAlign=middle;whiteSpace=wrap;rounded=0;shadow=0;glass=0;" parent="1" vertex="1">
                    <mxGeometry x="109" y="230" width="220" height="30" as="geometry"/>
                </mxCell>
                <mxCell id="47" style="edgeStyle=none;html=1;entryX=0.5;entryY=0;entryDx=0;entryDy=0;entryPerimeter=0;shadow=0;flowAnimation=1;" parent="1" source="48" target="22" edge="1">
                    <mxGeometry relative="1" as="geometry"/>
                </mxCell>
                <mxCell id="48" value="dw_banks&lt;br&gt;.parquet" style="whiteSpace=wrap;html=1;shape=mxgraph.basic.document;rounded=0;shadow=0;glass=0;strokeColor=#DCF213;fillColor=none;" parent="1" vertex="1">
                    <mxGeometry x="135" y="260" width="70" height="100" as="geometry"/>
                </mxCell>
                <mxCell id="49" style="edgeStyle=none;html=1;shadow=0;flowAnimation=1;" parent="1" source="50" target="24" edge="1">
                    <mxGeometry relative="1" as="geometry"/>
                </mxCell>
                <mxCell id="50" value="dw_complaints&lt;br&gt;.parquet" style="whiteSpace=wrap;html=1;shape=mxgraph.basic.document;rounded=0;shadow=0;glass=0;strokeColor=#DCF213;fillColor=none;" parent="1" vertex="1">
                    <mxGeometry x="270" y="260" width="80" height="100" as="geometry"/>
                </mxCell>
                <mxCell id="51" style="edgeStyle=none;html=1;entryX=0.5;entryY=0;entryDx=0;entryDy=0;entryPerimeter=0;shadow=0;flowAnimation=1;" parent="1" source="52" target="26" edge="1">
                    <mxGeometry relative="1" as="geometry"/>
                </mxCell>
                <mxCell id="52" value="dw_employees&lt;br&gt;.parquet" style="whiteSpace=wrap;html=1;shape=mxgraph.basic.document;rounded=0;shadow=0;glass=0;strokeColor=#DCF213;fillColor=none;" parent="1" vertex="1">
                    <mxGeometry x="409.5" y="260" width="81" height="100" as="geometry"/>
                </mxCell>
                <mxCell id="53" value="&lt;span style=&quot;color: rgb(240, 240, 240);&quot;&gt;dw_employees&lt;br&gt;&lt;/span&gt;&lt;span style=&quot;color: rgb(240, 240, 240);&quot;&gt;dw_complaints&lt;br&gt;&lt;/span&gt;&lt;span style=&quot;color: rgb(240, 240, 240);&quot;&gt;dw_banks&lt;/span&gt;" style="shape=cylinder3;whiteSpace=wrap;html=1;boundedLbl=1;backgroundOutline=1;size=15;rounded=0;shadow=0;glass=0;strokeColor=#001DBC;fillColor=#0050ef;fontColor=#ffffff;" parent="1" vertex="1">
                    <mxGeometry x="580" y="635" width="170" height="110" as="geometry"/>
                </mxCell>
                <mxCell id="54" value="&lt;font color=&quot;#f0f0f0&quot;&gt;tb_delivery&lt;/font&gt;" style="shape=cylinder3;whiteSpace=wrap;html=1;boundedLbl=1;backgroundOutline=1;size=15;rounded=0;shadow=0;glass=0;strokeColor=#001DBC;fillColor=#0050ef;fontColor=#ffffff;" parent="1" vertex="1">
                    <mxGeometry x="580" y="876.67" width="170" height="110" as="geometry"/>
                </mxCell>
                <mxCell id="56" value="&lt;ul&gt;&lt;li&gt;&lt;font style=&quot;font-size: 24px;&quot;&gt;Camada responsável por armazenar dados conforme a origem.&lt;/font&gt;&lt;/li&gt;&lt;li&gt;&lt;font style=&quot;font-size: 24px;&quot;&gt;Utiliza o Job Glue para ler os .csv e os armazena como parquet no S3.&lt;/font&gt;&lt;/li&gt;&lt;/ul&gt;" style="rounded=0;whiteSpace=wrap;html=1;shadow=0;dashed=1;align=left;" vertex="1" parent="1">
                    <mxGeometry x="590" y="80" width="450" height="120" as="geometry"/>
                </mxCell>
                <mxCell id="57" value="&lt;ul&gt;&lt;li&gt;&lt;font style=&quot;font-size: 24px;&quot;&gt;Camada responsável por tratar e padronizar os dados.&lt;/font&gt;&lt;/li&gt;&lt;li&gt;&lt;font style=&quot;font-size: 24px;&quot;&gt;Utiliza o Job Glue para fazer as transformações e salvar o resultado como parquet no S3, além de criar colunas DW no postgres.&lt;/font&gt;&lt;/li&gt;&lt;/ul&gt;" style="rounded=0;whiteSpace=wrap;html=1;shadow=0;dashed=1;align=left;" vertex="1" parent="1">
                    <mxGeometry x="770" y="560" width="450" height="180" as="geometry"/>
                </mxCell>
                <mxCell id="58" value="&lt;ul&gt;&lt;li&gt;&lt;font style=&quot;font-size: 24px;&quot;&gt;Camada responsável por conter os dados específicos para uma finalidade específica.&lt;/font&gt;&lt;/li&gt;&lt;li&gt;&lt;font style=&quot;font-size: 24px;&quot;&gt;Utiliza o Job Glue para fazer o merge entre as tabeelas e salvar a tabela final no postgres.&lt;/font&gt;&lt;/li&gt;&lt;/ul&gt;" style="rounded=0;whiteSpace=wrap;html=1;shadow=0;dashed=1;align=left;" vertex="1" parent="1">
                    <mxGeometry x="770" y="806.67" width="450" height="180" as="geometry"/>
                </mxCell>
            </root>
        </mxGraphModel>
    </diagram>
</mxfile>